HIERARCHY
ROOT Hips
{
  OFFSET 263.056 91.6644 -274.608
  CHANNELS 6 Xposition Yposition Zposition Zrotation Xrotation Yrotation
  JOINT LeftUpLeg
  {
    OFFSET 8.64259 1.95398 -2.38835
    CHANNELS 3 Zrotation Xrotation Yrotation
    JOINT LeftLeg
    {
      OFFSET 43.7702 0 0
      CHANNELS 3 Zrotation Xrotation Yrotation
      JOINT LeftFoot
      {
        OFFSET 40.6238 0 0
        CHANNELS 3 Zrotation Xrotation Yrotation
        JOINT LeftToeBase
        {
          OFFSET 12.7242 0 0
          CHANNELS 3 Zrotation Xrotation Yrotation
          End Site
          {
            OFFSET 0 0 0
          }
        }
      }
    }
  }
  JOINT RightUpLeg
  {
    OFFSET -8.2249 1.95398 -2.59336
    CHANNELS 3 Zrotation Xrotation Yrotation
    JOINT RightLeg
    {
      OFFSET 43.5653 0 0
      CHANNELS 3 Zrotation Xrotation Yrotation
      JOINT RightFoot
      {
        OFFSET 40.6238 0 0
        CHANNELS 3 Zrotation Xrotation Yrotation
        JOINT RightToeBase
        {
          OFFSET 12.7242 0 0
          CHANNELS 3 Zrotation Xrotation Yrotation
          End Site
          {
            OFFSET 0 0 0
          }
        }
      }
    }
  }
  JOINT Spine
  {
    OFFSET 0.165834 0.87714 6.61349
    CHANNELS 3 Zrotation Xrotation Yrotation
    JOINT Spine1
    {
      OFFSET 7.38963 1.71661e-005 0
      CHANNELS 3 Zrotation Xrotation Yrotation
      JOINT Spine2
      {
        OFFSET 11.9445 1.14441e-005 0
        CHANNELS 3 Zrotation Xrotation Yrotation
        JOINT Spine3
        {
          OFFSET 14.7254 4.19617e-005 0
          CHANNELS 3 Zrotation Xrotation Yrotation
          JOINT Spine4
          {
            OFFSET 10.9679 0 0
            CHANNELS 3 Zrotation Xrotation Yrotation
            JOINT RightShoulder
            {
              OFFSET 2.46616 -1.6653 3.69651
              CHANNELS 3 Zrotation Xrotation Yrotation
              JOINT RightArm
              {
                OFFSET 13.0012 0 0
                CHANNELS 3 Zrotation Xrotation Yrotation
                JOINT RightForeArm
                {
                  OFFSET 28.7848 1.52588e-005 0
                  CHANNELS 3 Zrotation Xrotation Yrotation
                  JOINT RightHand
                  {
                    OFFSET 26.5688 1.52588e-005 0
                    CHANNELS 3 Zrotation Xrotation Yrotation
                    End Site
                    {
                      OFFSET 0 0 0
                    }
                  }
                }
              }
            }
            JOINT LeftShoulder
            {
              OFFSET 2.38034 -1.29275 -3.7523
              CHANNELS 3 Zrotation Xrotation Yrotation
              JOINT LeftArm
              {
                OFFSET 16.3182 6.10352e-005 0
                CHANNELS 3 Zrotation Xrotation Yrotation
                JOINT LeftForeArm
                {
                  OFFSET 27.0901 0 0
                  CHANNELS 3 Zrotation Xrotation Yrotation
                  JOINT LeftHand
                  {
                    OFFSET 24.5451 1.52588e-005 0
                    CHANNELS 3 Zrotation Xrotation Yrotation
                    End Site
                    {
                      OFFSET 0 0 0
                    }
                  }
                }
              }
            }
            JOINT Neck
            {
              OFFSET 5.0226 -0.0266342 0
              CHANNELS 3 Zrotation Xrotation Yrotation
              JOINT Head
              {
                OFFSET 6.69364 2.86102e-005 0
                CHANNELS 3 Zrotation Xrotation Yrotation
                End Site
                {
                  OFFSET 0 0 0
                }
              }
            }
          }
        }
      }
    }
  }
}
MOTION
Frames:	18
Frame Time:	0.0416667
37.732 95.0813 -16.8566 108.606 -76.8347 106.964 -176.28 7.95383 81.7798 -24.2546 12.6056 -0.344507 67.6183 12.0961 10.2688 27.0077 -0.112776 -14.4274 -178.785 18.2039 86.8722 -17.4333 -8.81488 -5.04041 56.1749 1.38599 1.18234 46.728 1.73038 6.34334 -0.393404 7.8706 -90.0062 11.1331 -0.785804 0.0641694 -0.53763 -0.782218 0.098693 -23.0747 -0.768762 -0.174972 -3.062 -0.768766 -0.174982 79.0295 -52.3956 -116.356 25.457 -3.03624 17.3763 -7.86255 -10.5207 -41.9887 -8.27335 -0.68971 4.04495 -104.651 -43.2445 54.2533 -25.0927 6.90647 7.7763 6.44533 7.48507 -39.1146 12.0896 0.963067 3.92008 -2.38249 22.3777 7.99838 2.28168 21.5906 7.81218 
38.8614 94.2696 -11.1434 104.02 -73.0295 101.315 -177.329 4.91749 80.7343 -26.0532 13.6819 0.405552 70.9139 17.1877 11.7709 30.8116 3.38686 -17.5521 -177.706 20.3303 85.0737 -18.8424 -19.6486 -7.4365 50.9785 3.91579 3.18808 37.424 0.548911 7.20845 -0.513921 7.80977 -89.959 11.2549 -1.0036 0.181585 -0.41565 -0.994644 0.225579 -22.9538 -1.01178 -0.128471 -2.9412 -1.01178 -0.128471 79.0993 -53.1382 -115.963 26.0726 -2.44284 19.3671 -7.38658 -9.72215 -41.5854 -8.21493 -0.667082 3.82829 -104.59 -42.7766 54.1164 -22.6543 5.94489 7.62798 7.47045 6.43368 -43.2812 11.6935 0.910339 3.73748 -2.21819 24.2862 7.76402 2.24168 23.5191 8.48218 
40.0695 92.9894 -5.97096 105.123 -68.576 102.285 -177.491 2.94596 81.1237 -31.8736 14.1821 0.907076 71.4834 20.4765 14.9227 40.0256 11.079 -15.2443 -176.723 20.0413 85.2449 -29.5728 -14.784 -9.1649 58.8656 0.801435 0.695457 39.0281 1.12251 15.5625 -0.686643 7.95147 -90.1111 10.9707 -1.41843 -0.0870434 -0.699491 -1.42089 -0.0245193 -23.2402 -1.3267 -0.50939 -3.22757 -1.32668 -0.509389 78.794 -51.7867 -116.938 27.5039 -1.79637 20.4957 -7.82397 -9.87415 -41.2865 -7.37171 -0.643947 4.43823 -104.655 -42.9872 54.1209 -21.6583 3.906 7.13937 7.32014 4.52278 -45.2047 13.3718 1.08909 4.11821 -3.12019 25.5766 10.1119 4.48663 24.7244 8.01371 
41.8173 92.7579 -1.91693 101.402 -62.4607 99.8861 -175.891 6.07858 83.2119 -40.3885 11.8817 0.493775 67.1097 15.1491 14.1601 47.8693 19.871 -4.84137 -177.799 18.3076 85.8453 -33.4343 -9.17705 -8.21041 63.3911 -0.962937 -0.493494 42.8043 1.7333 14.2702 -0.872626 8.04535 -90.5181 10.776 -1.97655 -0.847383 -0.893617 -2.01194 -0.759554 -23.4354 -1.6305 -1.40232 -3.42274 -1.63052 -1.40233 79.5053 -51.4136 -116.056 26.1854 -2.35819 18.231 -6.12701 -9.23323 -38.4552 -8.56291 -0.766925 5.04178 -106.357 -43.6405 51.9019 -21.5822 3.0991 5.68969 3.80301 0.37393 -43.5046 17.2507 1.16845 2.90047 -2.63024 25.8167 10.7282 4.41955 24.9438 9.82241 
43.4263 93.5835 1.06645 97.5145 -58.2917 95.7667 -171.823 9.92357 84.591 -43.4146 4.24385 -1.83059 63.9283 10.1738 11.0558 47.2816 21.8296 5.65564 -179.67 16.1824 84.8185 -32.2465 -5.75842 -7.19113 65.2833 -1.51791 -0.808749 42.2563 1.68434 15.214 -0.711384 8.10115 -90.7188 10.6605 -1.7476 -1.26951 -1.00985 -1.80176 -1.19137 -23.5457 -1.28532 -1.736 -3.53301 -1.28532 -1.736 80.2472 -50.2649 -115.422 24.8582 -1.84424 16.562 -5.90518 -8.76688 -38.5077 -8.748 -0.746529 4.53807 -106.585 -43.4747 51.4793 -23.8032 4.45827 2.68819 4.3483 2.31325 -40.9083 15.9375 1.0638 2.80861 -0.55903 25.055 9.68998 3.82661 24.1825 12.2331 
45.1996 94.6592 3.94217 93.7433 -53.828 91.8487 -168.578 13.781 86.1117 -41.9372 3.03669 -4.17659 62.8464 7.73803 8.7778 45.3666 19.8598 6.94957 178.548 13.2624 83.6747 -28.6555 -2.88455 -5.96271 65.6476 -1.58265 -0.842938 42.3749 1.60645 13.3624 -0.469361 8.065 -90.7444 10.7349 -1.27784 -1.36271 -0.936077 -1.33656 -1.30516 -23.468 -0.809273 -1.68369 -3.45531 -0.809277 -1.68369 80.1131 -50.5088 -115.524 23.5989 -1.47597 15.6855 -7.58832 -10.0603 -40.5012 -9.81466 -0.869276 5.05853 -106.573 -43.3799 51.448 -25.6343 6.67599 3.39538 6.51287 5.97729 -42.1405 13.4502 1.0359 3.72275 0.451005 22.9034 7.63287 5.10285 22.4126 13.1999 
47.2178 95.2154 6.42216 90.4206 -47.0944 88.9152 -167.855 17.9502 86.9527 -36.9194 5.22982 -5.05898 61.4204 6.64817 9.28649 48.2722 22.6858 4.54705 176.673 11.2103 82.8578 -26.7759 1.64036 -4.24236 65.6847 -1.32894 -0.700291 44.1902 1.64345 9.60624 -0.407053 7.93683 -90.7159 10.9918 -1.14188 -1.31523 -0.679252 -1.19866 -1.26372 -23.2109 -0.693869 -1.59756 -3.19824 -0.69387 -1.59756 80.6551 -50.3281 -114.796 23.8171 -2.03115 14.9272 -8.19847 -9.77411 -43.0576 -10.0705 -0.852806 4.56948 -106.568 -43.2731 51.4 -27.7841 8.60721 4.74339 5.4189 6.73238 -39.8044 15.9343 1.39545 4.80878 1.38585 20.274 5.41839 5.89383 20.1336 12.9363 
49.5749 95.6315 8.64924 89.3943 -41.3862 88.1532 -168.065 20.7032 88.5029 -29.9272 2.79811 -4.83951 61.0802 4.89396 6.43901 47.2162 21.6438 5.24652 175.368 7.53136 82.5734 -24.0379 5.90681 -3.18485 65.5098 -1.49247 -0.804786 45.8186 1.7326 7.84622 -0.226089 7.94114 -90.6265 10.9863 -0.740252 -1.17596 -0.684891 -0.791263 -1.14225 -23.2163 -0.35264 -1.34403 -3.20366 -0.352638 -1.34404 79.9634 -50.5292 -115.736 23.3702 -2.54978 15.2118 -8.99349 -9.45918 -46.4503 -10.544 -0.722313 2.55983 -106.359 -43.5347 51.8442 -29.7313 8.25832 6.61106 3.61716 5.23621 -36.1417 16.0078 1.53889 5.67615 1.85657 17.1286 4.50859 8.38314 17.3501 12.353 
52.3583 95.6665 10.7553 87.5985 -35.5894 87.4442 -169.767 23.0706 90.0262 -19.2316 4.12478 -3.81083 57.268 1.46565 6.47213 46.9779 20.978 3.74131 174.763 4.19095 83.1568 -21.1064 10.4354 -2.43354 64.2632 -1.31026 -0.700961 47.8128 1.86184 6.56455 -0.0827803 7.86773 -90.4631 11.1362 -0.379723 -0.884896 -0.534978 -0.418323 -0.867339 -23.0678 -0.0962398 -0.958105 -3.05513 -0.0962547 -0.958112 79.6487 -51.3477 -115.872 22.9032 -3.71381 13.6378 -8.10021 -8.40707 -48.4574 -11.522 -0.809873 2.93494 -105.476 -43.3984 53.0919 -31.3164 6.72662 9.32583 4.29265 6.19402 -33.979 14.3184 1.36356 5.521 3.22923 14.2773 1.86017 8.78138 14.9227 11.9816 
55.8354 95.2656 12.4485 86.1951 -30.3855 87.5426 -171.883 24.7748 91.4623 -9.50891 4.00759 -2.82557 56.1891 0.989586 7.11304 46.169 20.1171 4.03298 174.395 0.475957 84.0096 -18.2144 14.9191 -1.90268 64.3708 -1.90797 -1.04735 48.491 1.90312 6.19833 0.0483666 7.78344 -90.3551 11.3058 -0.0691528 -0.699996 -0.365339 -0.0998966 -0.696279 -22.899 0.14441 -0.688422 -2.88638 0.144426 -0.688416 78.749 -51.519 -117.111 21.9721 -4.5428 12.82 -7.84886 -7.9236 -50.3246 -11.5511 -0.848561 3.35068 -105.186 -43.7485 53.6977 -32.202 6.89556 12.066 3.43771 6.28684 -30.9848 13.1568 1.29149 5.73509 3.33508 11.3557 0.649466 10.3461 12.211 10.1746 
59.7088 94.3028 13.4742 85.0765 -27.6047 88.2614 -172.598 27.9283 92.8371 -7.15625 1.00465 -1.90474 56.6505 0.126047 6.98665 46.194 19.6376 1.851 173.689 -2.48684 84.5725 -16.3908 15.2244 -1.22105 63.6993 -2.50665 -1.39413 52.7084 1.92931 3.11115 0.284337 7.75652 -90.2541 11.3617 0.44735 -0.551041 -0.309344 0.422683 -0.570202 -22.8445 0.592251 -0.391127 -2.83187 0.592303 -0.391115 79.4615 -51.0134 -116.279 21.0611 -6.87532 9.99506 -8.85515 -8.59174 -50.8761 -12.15 -0.900248 3.46617 -104.543 -44.4978 55.0189 -33.1267 6.972 14.4988 2.4297 6.39421 -27.413 13.4512 1.27904 5.46797 4.35311 9.16712 -0.137292 10.9002 10.043 8.52853 
64.3989 93.2365 14.2181 84.0987 -25.5263 88.0607 -171.49 31.8023 92.651 -13.5207 3.7617 -3.41505 52.3049 -4.13377 5.63861 44.8537 17.7899 0.0944939 173.232 -3.32298 83.8761 -18.8292 14.7243 -1.52978 62.5998 -2.131 -1.18058 56.2059 1.84669 0.841454 0.471473 7.78501 -90.0271 11.3047 0.925508 -0.146146 -0.365909 0.918199 -0.186744 -22.9037 0.926643 0.138787 -2.89104 0.926665 0.138806 79.483 -50.2895 -116.538 19.6456 -8.54079 7.78101 -10.6527 -10.8763 -52.2318 -12.0648 -1.0004 4.5665 -104.312 -44.7814 55.4965 -34.2786 5.54538 16.6885 2.5462 6.19695 -24.8523 11.57 1.05806 5.00286 6.50073 7.42491 -0.66779 10.0267 8.18619 6.96682 
70.3372 92.8882 14.4345 84.3271 -21.9968 86.8781 -169.539 32.513 88.9494 -21.7949 6.07996 -4.52041 54.8408 -0.902008 8.48687 46.9159 18.0962 -8.80131 171.933 -4.24799 81.2254 -23.1014 13.0463 -2.23123 58.9196 -0.852465 -0.372201 56.3203 1.2181 -2.69807 0.600595 7.88922 -89.7061 11.0931 1.33192 0.454558 -0.577279 1.35062 0.395481 -23.116 1.13373 0.833872 -3.10331 1.13375 0.833884 80.0101 -49.628 -116.026 19.9802 -8.00959 8.35153 -11.423 -11.5047 -52.2393 -12.2075 -1.06799 5.17483 -104.943 -44.6189 54.4817 -34.6899 5.54159 16.5409 1.57271 5.65018 -20.7285 9.00708 0.769635 4.29113 8.15566 4.80508 -1.8497 8.36335 5.76159 6.78884 
77.3656 93.1738 14.0868 84.2325 -19.6316 86.9971 -168.284 30.6726 87.4663 -26.3594 7.59676 -6.26265 59.2866 3.15756 10.5321 43.5762 14.767 -10.253 172.99 -1.78537 80.2347 -30.6241 13.7084 -3.65446 48.2848 1.00033 1.18576 48.525 1.07087 -2.43607 0.705331 7.73201 -89.6136 11.4061 1.58384 0.61118 -0.263981 1.6092 0.54086 -22.8039 1.32695 1.05899 -2.79125 1.32695 1.05899 81.0253 -48.929 -114.788 21.809 -8.09481 10.4705 -11.2983 -11.8729 -50.9715 -11.4186 -1.02486 5.36171 -104.175 -44.569 55.6007 -36.1197 5.61866 16.5972 1.74847 7.47837 -19.8213 7.26969 0.748623 5.53313 7.3391 3.23744 -2.27918 6.43922 4.14819 6.11403 
83.976 93.4179 13.7856 84.8598 -15.5049 87.4361 -168.16 27.434 86.2332 -29.3972 8.83243 -6.94121 63.9149 7.07612 10.0112 42.1512 13.318 -11.4429 175.67 4.51194 82.1518 -45.5872 9.42218 -5.0148 46.344 1.64595 1.74717 37.312 0.48559 -1.83826 0.373424 7.7069 -89.5853 11.4566 0.936787 0.73109 -0.214161 0.968037 0.689144 -22.7492 0.673765 0.978821 -2.73651 0.673763 0.978817 81.7644 -48.6314 -113.791 23.5501 -8.4413 11.28 -10.7811 -12.8118 -48.8011 -9.58924 -0.865769 5.11366 -104.303 -43.6961 54.9941 -37.2504 5.38248 16.6884 2.21201 6.63968 -22.045 6.94859 0.592853 3.99875 8.09745 2.76334 -2.03601 4.29066 3.47042 5.20707 
90.1113 93.9048 13.4583 86.3833 -11.6959 87.4749 -170.034 21.9408 84.6224 -29.1417 10.3239 -5.93961 65.923 9.10053 10.6649 40.8412 12.4632 -8.27882 176.955 12.2179 84.241 -57.407 5.22551 -4.85705 49.3233 1.19245 1.22987 41.4091 0.874496 2.05954 0.0585558 7.85682 -89.5358 11.1581 0.332328 0.891487 -0.513144 0.371257 0.875989 -23.0459 0.0490601 0.950148 -3.03323 0.0490451 0.95014 81.5174 -49.3031 -113.906 24.2539 -8.48089 12.7841 -10.3295 -13.1509 -47.2876 -8.9758 -0.829117 5.25569 -105.241 -43.1305 53.3102 -35.2037 7.81926 13.5709 1.63367 7.6027 -23.8276 7.86602 0.60412 3.3724 7.31469 2.05891 -1.56616 4.47858 2.65505 4.7764 
96.3578 94.9442 12.9648 86.6447 -8.99509 88.2211 -171.72 15.7701 83.9963 -25.3045 9.78774 -4.42681 67.6204 10.5902 9.86072 40.3237 12.3614 -4.38866 178.795 19.8972 87.508 -59.6791 3.90068 -4.526 54.924 -0.197096 0.0659221 44.9715 1.06746 0.810939 -0.118309 7.82548 -89.6346 11.2224 -0.065451 0.733806 -0.448735 -0.0330762 0.735972 -22.9823 -0.282955 0.680214 -2.96965 -0.282954 0.680213 81.1666 -51.0133 -113.781 24.0689 -9.38123 14.9493 -9.80937 -14.0195 -45.4837 -8.7672 -0.780046 4.71953 -105.455 -43.1349 52.9913 -31.7447 8.23 10.1323 3.94448 10.2801 -28.9448 9.90343 0.854331 4.38955 4.95804 1.41073 -1.09628 4.82248 1.89202 4.4019 
102.279 95.8003 12.7001 87.1517 -4.92331 88.8564 -172.993 9.69163 83.9532 -21.3145 12.1505 -3.34287 66.8176 10.0531 9.50691 41.4571 13.9573 -0.842107 179.773 24.8171 89.3434 -52.6127 4.13438 -3.64224 61.6128 -2.03427 -1.16702 40.3636 0.716341 0.508559 -0.511614 7.81565 -89.6903 11.2453 -0.874097 0.703207 -0.425543 -0.842291 0.740996 -22.9624 -1.04503 0.407983 -2.94978 -1.04498 0.407989 81.2125 -51.6271 -113.486 25.4112 -10.159 16.8957 -10.2087 -16.2347 -43.5021 -7.98885 -0.701638 4.15261 -104.967 -42.6083 53.4629 -28.6871 6.87241 7.61171 6.42376 9.08573 -36.0347 12.2658 1.05156 4.51701 3.20105 1.08833 -1.09114 3.57463 1.52455 4.40554 
